<svg width="9" height="19" viewBox="0 0 9 19" fill="none" xmlns="http://www.w3.org/2000/svg">
<path d="M5.41214 8.60708H3.58786C2.54856 8.60708 1.70307 7.72059 1.70307 6.63095C1.70307 5.54125 2.54861 4.65476 3.58786 4.65476H7.23636C7.70665 4.65476 8.08792 4.255 8.08792 3.7619C8.08792 3.26881 7.70665 2.86905 7.23636 2.86905H5.35156V0.892857C5.35156 0.399762 4.97029 0 4.5 0C4.02971 0 3.64844 0.399762 3.64844 0.892857V2.86905H3.58792C1.60951 2.86905 0 4.55667 0 6.63095C0 8.70524 1.60957 10.3928 3.58792 10.3928H5.41219C6.45144 10.3928 7.29693 11.2793 7.29693 12.369C7.29693 13.4586 6.45144 14.3452 5.41219 14.3452H1.7637C1.29341 14.3452 0.912138 14.7449 0.912138 15.238C0.912138 15.7311 1.29341 16.1309 1.7637 16.1309H3.64844V18.1071C3.64844 18.6002 4.02971 19 4.5 19C4.97029 19 5.35156 18.6002 5.35156 18.1071V16.1309H5.41214C7.39049 16.1309 9 14.4433 9 12.369C9 10.2947 7.39049 8.60708 5.41214 8.60708Z" fill="white"/>
</svg>
