<svg width="16" height="16" viewBox="0 0 16 16" fill="none" xmlns="http://www.w3.org/2000/svg">
<path d="M8.00456 9.84999C10.4712 9.84999 12.4879 7.83333 12.4879 5.34999C12.4879 2.86666 10.4712 0.849992 8.00456 0.849992C5.53789 0.849992 3.52122 2.86666 3.52122 5.34999C3.52122 7.83333 5.53789 9.84999 8.00456 9.84999ZM8.00456 2.16664C9.73789 2.16664 11.1546 3.58331 11.1546 5.33331C11.1546 7.08331 9.73789 8.49998 8.00456 8.49998C6.27122 8.49998 4.85456 7.08331 4.85456 5.33331C4.85456 3.58331 6.27122 2.16664 8.00456 2.16664ZM10.0879 10.2833C9.87122 10.2166 9.62123 10.2666 9.45456 10.4166L8.00456 11.65L6.55456 10.4166C6.37122 10.2666 6.13789 10.2166 5.92122 10.2833C4.98789 10.5833 0.337891 12.1833 0.337891 14.5C0.337891 14.8666 0.637891 15.1666 1.00456 15.1666H15.0046C15.3712 15.1666 15.6712 14.8666 15.6712 14.5C15.6712 12.1833 11.0212 10.5833 10.0879 10.2833ZM2.02122 13.8333C2.75456 13.05 4.52122 12.1833 5.98789 11.6833L7.57122 13.0333C7.82122 13.25 8.18789 13.25 8.43789 13.0333L10.0212 11.6833C11.4879 12.2 13.2546 13.0666 13.9879 13.8333H2.02122Z" fill="white"/>
</svg>
