<svg width="20" height="16" viewBox="0 0 20 16" fill="none" xmlns="http://www.w3.org/2000/svg">
<path d="M18.4047 3.39999H10.6047V1.56C10.6047 1.22 10.1647 0.799988 9.84468 0.799988H1.40469C1.06469 0.799988 0.804688 1.22 0.804688 1.56V6.67999C0.804688 7.01999 1.08469 7.39999 1.40469 7.39999H2.62468L4.22468 9.13998C4.34468 9.27998 4.50469 9.31998 4.68469 9.31998C4.76469 9.31998 4.7847 9.3 4.8647 9.26C5.1047 9.18 5.22468 8.93999 5.22468 8.67999V7.39999H6.42468V11.12C6.42468 11.56 6.88468 12 7.32468 12H12.8247V14.44C12.8247 14.76 12.9847 15.06 13.3047 15.18C13.4047 15.22 13.4847 15.24 13.5847 15.24C13.8047 15.24 14.0047 15.2 14.1647 15.04L17.1447 12H18.4247C18.8647 12 19.2247 11.56 19.2247 11.12V4.37999C19.2047 3.93999 18.8447 3.39999 18.4047 3.39999ZM4.68469 6.19999C4.34469 6.19999 4.00469 6.33999 4.00469 6.67999V7.07999L3.32468 6.33998C3.20468 6.21998 3.08469 6.19999 2.90469 6.19999H2.00469V1.99999H9.20469V3.39999H7.30469C6.86469 3.39999 6.40469 3.93999 6.40469 4.37999V6.19999H4.68469ZM17.6047 10.4H16.7847C16.5647 10.4 16.3847 10.44 16.2247 10.6L14.4047 12.44V11.1C14.4047 10.66 13.9847 10.38 13.5447 10.38H8.00469V4.97999H17.6047V10.4ZM9.1647 6.79999C9.1647 6.45999 9.4447 6.19999 9.7647 6.19999H13.5847C13.9247 6.19999 14.1847 6.45999 14.1847 6.79999C14.1847 7.13999 13.9047 7.39999 13.5847 7.39999H9.7647C9.4247 7.39999 9.1647 7.13999 9.1647 6.79999ZM14.9847 7.21998C14.8647 7.09998 14.8047 6.95999 14.8047 6.79999C14.8047 6.63999 14.8647 6.47999 14.9847 6.37999C15.2047 6.15999 15.6247 6.15999 15.8447 6.37999C15.9647 6.49999 16.0247 6.63999 16.0247 6.79999C16.0247 6.95999 15.9647 7.11998 15.8447 7.21998C15.7247 7.33998 15.5847 7.39999 15.4247 7.39999C15.2447 7.37999 15.0847 7.31998 14.9847 7.21998Z" fill="white"/>
</svg>
