<svg width="15" height="17" viewBox="0 0 15 17" fill="none" xmlns="http://www.w3.org/2000/svg">
<path d="M1.53758 3.79736C1.14898 3.79736 0.738797 3.59904 0.458143 3.27682C0.177489 2.9546 0.0263672 2.50847 0.0263672 2.06231C0.0263672 1.61616 0.199077 1.17001 0.458143 0.822997C0.738797 0.500775 1.1274 0.327271 1.53758 0.327271C1.92618 0.327271 2.31478 0.525561 2.59543 0.822997C2.87609 1.14522 3.0488 1.59137 3.0488 2.06231C3.0488 2.50847 2.87609 2.9546 2.59543 3.27682C2.33637 3.62383 1.92618 3.79736 1.53758 3.79736ZM8.23011 3.27682C8.51076 2.9546 8.68347 2.50847 8.68347 2.06231C8.68347 1.61616 8.51076 1.17001 8.23011 0.822997C7.94945 0.500775 7.56085 0.327271 7.17226 0.327271C6.78366 0.327271 6.37347 0.525561 6.09282 0.822997C5.81216 1.14522 5.66104 1.59137 5.66104 2.06231C5.66104 2.50847 5.83375 2.9546 6.09282 3.27682C6.37347 3.59904 6.76207 3.79736 7.17226 3.79736C7.53927 3.79736 7.94945 3.62383 8.23011 3.27682ZM13.8432 3.27682C14.1238 2.9546 14.2965 2.50847 14.2965 2.06231C14.2965 1.61616 14.1238 1.17001 13.8432 0.822997C13.5625 0.500775 13.1739 0.327271 12.7853 0.327271C12.3967 0.327271 11.9866 0.525561 11.7059 0.822997C11.4252 1.14522 11.2741 1.59137 11.2741 2.06231C11.2741 2.50847 11.4468 2.9546 11.7059 3.27682C11.9866 3.59904 12.3751 3.79736 12.7853 3.79736C13.1523 3.79736 13.5625 3.62383 13.8432 3.27682ZM2.61702 9.47341C2.89768 9.15119 3.07039 8.70506 3.07039 8.2589C3.07039 7.81275 2.89768 7.36659 2.61702 7.01958C2.33637 6.69736 1.94777 6.52386 1.55917 6.52386C1.17057 6.52386 0.760387 6.72215 0.479733 7.01958C0.199079 7.34181 0.0479573 7.78796 0.0479573 8.2589C0.0479573 8.70506 0.220668 9.15119 0.479733 9.47341C0.760387 9.79563 1.14899 9.99395 1.55917 9.99395C1.92618 9.99395 2.33637 9.82042 2.61702 9.47341ZM8.23011 9.47341C8.51076 9.15119 8.68347 8.70506 8.68347 8.2589C8.68347 7.81275 8.51076 7.36659 8.23011 7.01958C7.94945 6.69736 7.56085 6.52386 7.17226 6.52386C6.78366 6.52386 6.37347 6.72215 6.09282 7.01958C5.81216 7.34181 5.66104 7.78796 5.66104 8.2589C5.66104 8.70506 5.83375 9.15119 6.09282 9.47341C6.37347 9.79563 6.76207 9.99395 7.17226 9.99395C7.53927 9.99395 7.94945 9.82042 8.23011 9.47341ZM13.8432 9.47341C14.1238 9.15119 14.2965 8.70506 14.2965 8.2589C14.2965 7.81275 14.1238 7.36659 13.8432 7.01958C13.5625 6.69736 13.1739 6.52386 12.7853 6.52386C12.3967 6.52386 11.9866 6.72215 11.7059 7.01958C11.4252 7.34181 11.2741 7.78796 11.2741 8.2589C11.2741 8.70506 11.4468 9.15119 11.7059 9.47341C11.9866 9.79563 12.3751 9.99395 12.7853 9.99395C13.1523 9.99395 13.5625 9.82042 13.8432 9.47341ZM2.61702 15.67C2.89768 15.3478 3.07039 14.9016 3.07039 14.4555C3.07039 14.0093 2.89768 13.5632 2.61702 13.2162C2.33637 12.8939 1.94777 12.7204 1.55917 12.7204C1.17057 12.7204 0.760387 12.9187 0.479733 13.2162C0.199079 13.5384 0.0479573 13.9845 0.0479573 14.4555C0.0479573 14.9016 0.220668 15.3478 0.479733 15.67C0.760387 15.9922 1.14899 16.1905 1.55917 16.1905C1.92618 16.1905 2.33637 16.017 2.61702 15.67ZM8.23011 15.67C8.51076 15.3478 8.68347 14.9016 8.68347 14.4555C8.68347 14.0093 8.51076 13.5632 8.23011 13.2162C7.94945 12.8939 7.56085 12.7204 7.17226 12.7204C6.78366 12.7204 6.37347 12.9187 6.09282 13.2162C5.81216 13.5384 5.66104 13.9845 5.66104 14.4555C5.66104 14.9016 5.83375 15.3478 6.09282 15.67C6.37347 15.9922 6.76207 16.1905 7.17226 16.1905C7.53927 16.1905 7.94945 16.017 8.23011 15.67ZM13.8432 15.67C14.1238 15.3478 14.2965 14.9016 14.2965 14.4555C14.2965 14.0093 14.1238 13.5632 13.8432 13.2162C13.5625 12.8939 13.1739 12.7204 12.7853 12.7204C12.3967 12.7204 11.9866 12.9187 11.7059 13.2162C11.4252 13.5384 11.2741 13.9845 11.2741 14.4555C11.2741 14.9016 11.4468 15.3478 11.7059 15.67C11.9866 15.9922 12.3751 16.1905 12.7853 16.1905C13.1523 16.1905 13.5625 16.017 13.8432 15.67Z" fill="white"/>
</svg>
