<svg width="15" height="17" viewBox="0 0 15 17" fill="none" xmlns="http://www.w3.org/2000/svg">
<path d="M8.39376 16.7233C8.35967 16.7233 8.32558 16.7233 8.2915 16.7037C7.98471 16.645 7.74609 16.3711 7.72904 16.0188L7.13251 9.20912L1.20127 8.52423C0.894481 8.48509 0.638824 8.21114 0.604737 7.87848C0.553606 7.52626 0.724052 7.1936 0.996752 7.03705L13.95 0.364314C14.2057 0.227337 14.5125 0.286039 14.717 0.520857C14.9215 0.755675 14.9727 1.1079 14.8534 1.40142L9.04141 16.2732C8.90506 16.5472 8.64941 16.7233 8.39376 16.7233ZM3.86012 7.27187L7.79722 7.7415C8.12106 7.78064 8.37671 8.07417 8.4108 8.44596L8.81985 12.9662L12.8422 2.63422L3.86012 7.27187Z" fill="white"/>
</svg>
