<svg width="16" height="21" viewBox="0 0 16 21" fill="none" xmlns="http://www.w3.org/2000/svg">
<path d="M15.1254 17.6739L13.013 14.3947C12.5918 13.7437 11.7309 13.5557 11.094 13.9766L9.53742 15.0048C9.4632 14.9385 9.38646 14.8693 9.30586 14.7962C8.56447 14.1304 7.54991 13.2182 6.58213 11.7149C5.61129 10.2081 5.19536 8.89838 4.891 7.9421C4.85894 7.84083 4.82833 7.74327 4.7975 7.6502L5.842 6.96128L6.35573 6.62138C6.99361 6.1998 7.16956 5.32612 6.7499 4.6739L4.63756 1.39437C4.21776 0.742891 3.35645 0.554736 2.71858 0.976307L1.84698 1.55595L1.86328 1.58106C1.55854 1.84336 1.28517 2.16446 1.05902 2.52706C0.848348 2.87331 0.694049 3.21483 0.587227 3.56842C-0.291171 6.39873 0.521103 9.36962 3.38888 13.821C7.3531 19.9738 11.356 20.5325 11.529 20.5544C11.9069 20.5972 12.2777 20.5911 12.664 20.5338C13.0791 20.4713 13.4791 20.3475 13.8386 20.1712L13.852 20.1896L14.7313 19.6225C15.368 19.2008 15.5446 18.3269 15.1254 17.6739Z" fill="white"/>
</svg>
