<svg width="16" height="14" viewBox="0 0 16 14" fill="none" xmlns="http://www.w3.org/2000/svg">
<path d="M10.3379 9.45003V12.5C10.3379 12.8667 10.0712 13.1667 9.70455 13.1667H1.00456C0.637891 13.1667 0.337891 12.8667 0.337891 12.5V1.50004C0.337891 1.13337 0.637891 0.833374 1.00456 0.833374H9.70455C10.0712 0.833374 10.3379 1.13337 10.3379 1.50004V4.55005C10.3379 4.91672 10.0379 5.21672 9.67122 5.21672C9.30456 5.21672 9.00456 4.91672 9.00456 4.55005V2.16671H1.67122V11.8334H9.00456V9.45003C9.00456 9.08337 9.30456 8.78337 9.67122 8.78337C10.0379 8.78337 10.3379 9.08337 10.3379 9.45003ZM15.4712 6.50004L12.8546 3.8667C12.5879 3.60003 12.1712 3.60003 11.9045 3.8667C11.6379 4.13337 11.6379 4.55002 11.9045 4.81669L13.3879 6.31669L5.30456 6.33337C4.9379 6.33337 4.6379 6.63337 4.6379 7.00004C4.6379 7.36671 4.9379 7.66671 5.30456 7.66671L13.3879 7.65003L11.9045 9.15003C11.6379 9.41669 11.6545 9.83339 11.9045 10.1001C12.0379 10.2334 12.2045 10.3 12.3712 10.3C12.5379 10.3 12.7212 10.2334 12.8379 10.1001L15.4545 7.46672C15.7379 7.18338 15.7379 6.76671 15.4712 6.50004Z" fill="#9091DF"/>
</svg>
