<?xml version="1.0" encoding="utf-8"?>
<!-- Generator: Adobe Illustrator 23.0.2, SVG Export Plug-In . SVG Version: 6.00 Build 0)  -->
<svg version="1.1" id="Шар_1" xmlns="http://www.w3.org/2000/svg" xmlns:xlink="http://www.w3.org/1999/xlink" x="0px" y="0px"
	 viewBox="0 0 160 37.7" width="160" height="38" style="enable-background:new 0 0 160 37.7;" xml:space="preserve">
<style type="text/css">
	.st0{clip-path:url(#SVGID_2_);fill:url(#SVGID_3_);}
	.st1{filter:url(#Adobe_OpacityMaskFilter);}
	.st2{fill:url(#SVGID_5_);}
	.st3{mask:url(#SVGID_4_);fill-rule:evenodd;clip-rule:evenodd;fill:#4041B5;}
	.st4{filter:url(#Adobe_OpacityMaskFilter_1_);}
	.st5{fill:url(#SVGID_7_);}
	.st6{mask:url(#SVGID_6_);fill-rule:evenodd;clip-rule:evenodd;fill:#040C9E;}
	.st7{filter:url(#Adobe_OpacityMaskFilter_2_);}
	.st8{fill:url(#SVGID_9_);}
	.st9{mask:url(#SVGID_8_);fill-rule:evenodd;clip-rule:evenodd;fill:#F8FBB9;}
	.st10{filter:url(#Adobe_OpacityMaskFilter_3_);}
	.st11{fill:url(#SVGID_11_);}
	.st12{mask:url(#SVGID_10_);fill-rule:evenodd;clip-rule:evenodd;fill:#F8FBB9;}
	.st13{clip-path:url(#SVGID_13_);fill:url(#SVGID_14_);}
	.st14{filter:url(#Adobe_OpacityMaskFilter_4_);}
	.st15{fill:url(#SVGID_16_);}
	.st16{mask:url(#SVGID_15_);fill-rule:evenodd;clip-rule:evenodd;fill:#FFC1FF;}
	.st17{filter:url(#Adobe_OpacityMaskFilter_5_);}
	.st18{fill:url(#SVGID_18_);}
	.st19{mask:url(#SVGID_17_);fill-rule:evenodd;clip-rule:evenodd;fill:#3702C8;}
	.st20{filter:url(#Adobe_OpacityMaskFilter_6_);}
	.st21{fill:url(#SVGID_20_);}
	.st22{mask:url(#SVGID_19_);fill-rule:evenodd;clip-rule:evenodd;fill:#FFC1FF;}
	.st23{filter:url(#Adobe_OpacityMaskFilter_7_);}
	.st24{fill:url(#SVGID_22_);}
	.st25{mask:url(#SVGID_21_);fill-rule:evenodd;clip-rule:evenodd;fill:#FFC1FF;}
	.st26{fill:#FFFFFF;}
</style>
<g>
	<g>
		<defs>
			<path id="SVGID_1_" d="M25.51,0.68l18.4,10.62c1.45,0.84,1.45,2.92,0,3.75l-18.4,10.62c-0.69,0.4-1.48,0.4-2.17,0L9.47,17.67
				c1.22-3.4,4.64-5.01,7.91-6.05c-0.06,0-0.13-0.01-0.19-0.01l0,0c-2.97,0.55-8.65,2.88-9.74,7.68c0.65,0.4,1.07,1.12,1.07,1.94
				c0,0.79-0.4,1.49-1.02,1.9c1.01,6.71-1.48,11.91-3.25,12.02C2.45,35.28,0,32.95,0,32.95c4.96-2.38,4.94-6.23,4.9-9.87
				c-0.57-0.42-0.94-1.09-0.94-1.84c0-0.95,0.58-1.77,1.41-2.11c0.31-1.01,0.76-2.06,1.29-3.07l-1.72-1c-1.45-0.84-1.45-2.92,0-3.75
				l18.4-10.62C24.03,0.28,24.82,0.28,25.51,0.68"/>
		</defs>
		<clipPath id="SVGID_2_">
			<use xlink:href="#SVGID_1_"  style="overflow:visible;"/>
		</clipPath>
		<linearGradient id="SVGID_3_" gradientUnits="userSpaceOnUse" x1="-9.7948" y1="41.252" x2="42.5697" y2="3.404">
			<stop  offset="5.575327e-07" style="stop-color:#00A0E0"/>
			<stop  offset="0.9799" style="stop-color:#87B4E1"/>
		</linearGradient>
		<rect x="0" y="0.28" class="st0" width="45.37" height="34.99"/>
	</g>
	<defs>
		<filter id="Adobe_OpacityMaskFilter" filterUnits="userSpaceOnUse" x="0" y="19.3" width="8.53" height="15.86">
			<feColorMatrix  type="matrix" values="1 0 0 0 0  0 1 0 0 0  0 0 1 0 0  0 0 0 1 0"/>
		</filter>
	</defs>
	<mask maskUnits="userSpaceOnUse" x="0" y="19.3" width="8.53" height="15.86" id="SVGID_4_">
		<g class="st1">
			
				<linearGradient id="SVGID_5_" gradientUnits="userSpaceOnUse" x1="-14.0117" y1="417.4852" x2="-32.9948" y2="384.2298" gradientTransform="matrix(1 0 0 1 33.7183 -363.1982)">
				<stop  offset="0" style="stop-color:#FFFFFF"/>
				<stop  offset="1" style="stop-color:#000000"/>
			</linearGradient>
			<rect x="0" y="19.3" class="st2" width="8.53" height="15.86"/>
		</g>
	</mask>
	<path class="st3" d="M7.45,19.3c0.65,0.4,1.07,1.12,1.07,1.94c0,0.79-0.4,1.49-1.02,1.9c0,0-1.66,11.56-7.51,9.82
		c0,0,2.45,2.33,4.26,2.21c1.76-0.12,4.26-5.31,3.25-12.02C8.34,21.05,7.45,19.3,7.45,19.3"/>
	<defs>
		<filter id="Adobe_OpacityMaskFilter_1_" filterUnits="userSpaceOnUse" x="9.47" y="11.62" width="7.91" height="6.65">
			<feColorMatrix  type="matrix" values="1 0 0 0 0  0 1 0 0 0  0 0 1 0 0  0 0 0 1 0"/>
		</filter>
	</defs>
	<mask maskUnits="userSpaceOnUse" x="9.47" y="11.62" width="7.91" height="6.65" id="SVGID_6_">
		<g class="st4">
			
				<linearGradient id="SVGID_7_" gradientUnits="userSpaceOnUse" x1="-20.9468" y1="393.54" x2="-38.9246" y2="404.5441" gradientTransform="matrix(1 0 0 1 46.5269 -386.0288)">
				<stop  offset="0" style="stop-color:#FFFFFF"/>
				<stop  offset="1" style="stop-color:#000000"/>
			</linearGradient>
			<rect x="9.47" y="11.62" class="st5" width="7.91" height="6.65"/>
		</g>
	</mask>
	<path class="st6" d="M10.52,18.28l-1.05-0.6c1.22-3.4,4.64-5.01,7.91-6.05C17.38,11.62,11.48,14.84,10.52,18.28z"/>
	<defs>
		<filter id="Adobe_OpacityMaskFilter_2_" filterUnits="userSpaceOnUse" x="23.35" y="6.53" width="21.66" height="19.46">
			<feColorMatrix  type="matrix" values="1 0 0 0 0  0 1 0 0 0  0 0 1 0 0  0 0 0 1 0"/>
		</filter>
	</defs>
	<mask maskUnits="userSpaceOnUse" x="23.35" y="6.53" width="21.66" height="19.46" id="SVGID_8_">
		<g class="st7">
			
				<linearGradient id="SVGID_9_" gradientUnits="userSpaceOnUse" x1="-1.2782" y1="382.711" x2="-47.2309" y2="396.806" gradientTransform="matrix(1 0 0 1 65.291 -375.6094)">
				<stop  offset="0" style="stop-color:#FFFFFF"/>
				<stop  offset="1" style="stop-color:#000000"/>
			</linearGradient>
			<rect x="23.35" y="6.53" class="st8" width="21.66" height="19.46"/>
		</g>
	</mask>
	<path class="st9" d="M35.64,6.53l8.28,4.78c1.45,0.84,1.45,2.92,0,3.75l-18.4,10.62c-0.69,0.4-1.48,0.4-2.17,0
		C23.35,25.68,35.28,18.13,35.64,6.53"/>
	<defs>
		<filter id="Adobe_OpacityMaskFilter_3_" filterUnits="userSpaceOnUse" x="23.35" y="0.38" width="21.66" height="18.93">
			<feColorMatrix  type="matrix" values="1 0 0 0 0  0 1 0 0 0  0 0 1 0 0  0 0 0 1 0"/>
		</filter>
	</defs>
	<mask maskUnits="userSpaceOnUse" x="23.35" y="0.38" width="21.66" height="18.93" id="SVGID_10_">
		<g class="st10">
			
				<linearGradient id="SVGID_11_" gradientUnits="userSpaceOnUse" x1="0.3156" y1="400.8149" x2="-44.6758" y2="391.7411" gradientTransform="matrix(1 0 0 1 65.291 -384.6294)">
				<stop  offset="0" style="stop-color:#FFFFFF"/>
				<stop  offset="1" style="stop-color:#000000"/>
			</linearGradient>
			<rect x="23.35" y="0.38" class="st11" width="21.66" height="18.93"/>
		</g>
	</mask>
	<path class="st12" d="M25.51,0.68l18.4,10.62c1.45,0.84,1.45,2.92,0,3.75l-7.37,4.25c3.21-7.54-13.2-18.63-13.2-18.63
		C24.03,0.28,24.82,0.28,25.51,0.68"/>
	<g>
		<defs>
			<path id="SVGID_12_" d="M39.3,20.41v7.41c0,4.26-3.48,7.74-7.74,7.74H17.29c-4.26,0-7.74-3.48-7.74-7.74v-7.41l12.63,7.29
				c1.41,0.81,3.09,0.81,4.5,0L39.3,20.41z"/>
		</defs>
		<clipPath id="SVGID_13_">
			<use xlink:href="#SVGID_12_"  style="overflow:visible;"/>
		</clipPath>
		<linearGradient id="SVGID_14_" gradientUnits="userSpaceOnUse" x1="24.9269" y1="16.3043" x2="23.899" y2="40.4266">
			<stop  offset="2.445319e-07" style="stop-color:#116DB5"/>
			<stop  offset="0.49" style="stop-color:#3B8BF0"/>
			<stop  offset="1" style="stop-color:#69B4E4"/>
		</linearGradient>
		<rect x="9.55" y="20.41" class="st13" width="29.75" height="15.15"/>
	</g>
	<defs>
		<filter id="Adobe_OpacityMaskFilter_4_" filterUnits="userSpaceOnUse" x="9.55" y="21.98" width="15.05" height="13.57">
			<feColorMatrix  type="matrix" values="1 0 0 0 0  0 1 0 0 0  0 0 1 0 0  0 0 0 1 0"/>
		</filter>
	</defs>
	<mask maskUnits="userSpaceOnUse" x="9.55" y="21.98" width="15.05" height="13.57" id="SVGID_15_">
		<g class="st14">
			
				<linearGradient id="SVGID_16_" gradientUnits="userSpaceOnUse" x1="-51.5995" y1="405.9753" x2="-27.9574" y2="390.3716" gradientTransform="matrix(1 0 0 1 46.6411 -362.6641)">
				<stop  offset="0" style="stop-color:#FFFFFF"/>
				<stop  offset="1" style="stop-color:#000000"/>
			</linearGradient>
			<rect x="9.55" y="21.98" class="st15" width="15.05" height="13.57"/>
		</g>
	</mask>
	<path class="st16" d="M24.6,35.55h-7.31c-4.26,0-7.74-3.48-7.74-7.74v-5.83C9.55,21.98,14.23,33.35,24.6,35.55"/>
	<defs>
		<filter id="Adobe_OpacityMaskFilter_5_" filterUnits="userSpaceOnUse" x="9.55" y="20.41" width="29.75" height="9.47">
			<feColorMatrix  type="matrix" values="1 0 0 0 0  0 1 0 0 0  0 0 1 0 0  0 0 0 1 0"/>
		</filter>
	</defs>
	<mask maskUnits="userSpaceOnUse" x="9.55" y="20.41" width="29.75" height="9.47" id="SVGID_17_">
		<g class="st17">
			
				<linearGradient id="SVGID_18_" gradientUnits="userSpaceOnUse" x1="-22.2118" y1="412.7527" x2="-22.2118" y2="391.1652" gradientTransform="matrix(1 0 0 1 46.6411 -370.3345)">
				<stop  offset="0" style="stop-color:#FFFFFF"/>
				<stop  offset="1" style="stop-color:#000000"/>
			</linearGradient>
			<rect x="9.55" y="20.41" class="st18" width="29.75" height="9.47"/>
		</g>
	</mask>
	<path class="st19" d="M26.68,29.27l12.63-7.29v-1.57L26.68,27.7c-1.41,0.81-3.09,0.81-4.5,0L9.55,20.41v1.57l12.63,7.29
		C23.59,30.09,25.27,30.09,26.68,29.27"/>
	<defs>
		<filter id="Adobe_OpacityMaskFilter_6_" filterUnits="userSpaceOnUse" x="24.26" y="21.98" width="15.05" height="13.57">
			<feColorMatrix  type="matrix" values="1 0 0 0 0  0 1 0 0 0  0 0 1 0 0  0 0 0 1 0"/>
		</filter>
	</defs>
	<mask maskUnits="userSpaceOnUse" x="24.26" y="21.98" width="15.05" height="13.57" id="SVGID_19_">
		<g class="st20">
			
				<linearGradient id="SVGID_20_" gradientUnits="userSpaceOnUse" x1="-12.7071" y1="405.9765" x2="-36.3485" y2="390.3733" gradientTransform="matrix(1 0 0 1 66.5259 -362.6641)">
				<stop  offset="0" style="stop-color:#FFFFFF"/>
				<stop  offset="1" style="stop-color:#000000"/>
			</linearGradient>
			<rect x="24.26" y="21.98" class="st21" width="15.05" height="13.57"/>
		</g>
	</mask>
	<path class="st22" d="M24.26,35.55h7.31c4.26,0,7.74-3.48,7.74-7.74v-5.83C39.3,21.98,34.63,33.35,24.26,35.55"/>
	<defs>
		<filter id="Adobe_OpacityMaskFilter_7_" filterUnits="userSpaceOnUse" x="9.55" y="24.22" width="29.75" height="11.34">
			<feColorMatrix  type="matrix" values="1 0 0 0 0  0 1 0 0 0  0 0 1 0 0  0 0 0 1 0"/>
		</filter>
	</defs>
	<mask maskUnits="userSpaceOnUse" x="9.55" y="24.22" width="29.75" height="11.34" id="SVGID_21_">
		<g class="st23">
			
				<linearGradient id="SVGID_22_" gradientUnits="userSpaceOnUse" x1="-22.2118" y1="405.806" x2="-22.2118" y2="392.8348" gradientTransform="matrix(1 0 0 1 46.6411 -362.6641)">
				<stop  offset="0" style="stop-color:#FFFFFF"/>
				<stop  offset="1" style="stop-color:#000000"/>
			</linearGradient>
			<rect x="9.55" y="24.22" class="st24" width="29.75" height="11.34"/>
		</g>
	</mask>
	<path class="st25" d="M17.15,31.96c-4.19-0.08-7.6-3.53-7.6-7.74v3.6c0,4.26,3.48,7.74,7.74,7.74h6.96
		c0.06-0.01,0.11-0.02,0.17-0.04c0.06,0.01,0.11,0.03,0.17,0.04h6.96c4.26,0,7.74-3.48,7.74-7.74v-3.6c0,4.21-3.41,7.66-7.6,7.74
		c-0.05,0-0.09,0-0.14,0H17.29C17.25,31.96,17.2,31.96,17.15,31.96"/>
</g>
<g>
	<path class="st26" d="M51.04,15.35c-0.57-0.16-1.03-0.38-1.37-0.64l0.61-1.34c0.33,0.24,0.72,0.44,1.18,0.58
		c0.46,0.15,0.91,0.22,1.36,0.22c0.51,0,0.88-0.08,1.12-0.23s0.36-0.35,0.36-0.6c0-0.18-0.07-0.34-0.21-0.46
		c-0.14-0.12-0.33-0.22-0.55-0.29s-0.53-0.15-0.91-0.24c-0.59-0.14-1.07-0.28-1.44-0.42c-0.37-0.14-0.7-0.36-0.96-0.67
		c-0.27-0.31-0.4-0.72-0.4-1.23c0-0.45,0.12-0.85,0.36-1.22c0.24-0.36,0.61-0.65,1.09-0.86c0.49-0.21,1.08-0.32,1.79-0.32
		c0.49,0,0.97,0.06,1.44,0.18c0.47,0.12,0.88,0.29,1.23,0.51l-0.55,1.35c-0.71-0.4-1.42-0.6-2.13-0.6c-0.5,0-0.87,0.08-1.11,0.24
		c-0.24,0.16-0.36,0.37-0.36,0.64s0.14,0.46,0.41,0.59c0.28,0.13,0.69,0.25,1.26,0.38c0.59,0.14,1.07,0.28,1.44,0.42
		c0.37,0.14,0.7,0.36,0.96,0.66c0.27,0.3,0.4,0.71,0.4,1.22c0,0.44-0.12,0.84-0.37,1.2c-0.25,0.36-0.61,0.65-1.11,0.86
		c-0.49,0.21-1.09,0.32-1.79,0.32C52.2,15.6,51.61,15.52,51.04,15.35z"/>
	<path class="st26" d="M60.99,15.18c-0.17,0.13-0.38,0.22-0.62,0.28c-0.25,0.06-0.5,0.09-0.78,0.09c-0.7,0-1.25-0.18-1.63-0.54
		c-0.38-0.36-0.58-0.89-0.58-1.58V11h-0.91V9.68h0.91V8.24h1.72v1.44h1.47V11H59.1v2.41c0,0.25,0.06,0.44,0.19,0.58
		c0.13,0.14,0.31,0.2,0.54,0.2c0.27,0,0.5-0.07,0.69-0.22L60.99,15.18z"/>
	<path class="st26" d="M67.92,9.55v5.92h-1.63v-0.7c-0.23,0.26-0.5,0.45-0.81,0.59c-0.31,0.14-0.66,0.2-1.02,0.2
		c-0.78,0-1.39-0.22-1.85-0.67c-0.46-0.45-0.68-1.11-0.68-1.99V9.55h1.72v3.09c0,0.95,0.4,1.43,1.2,1.43c0.41,0,0.74-0.13,0.99-0.4
		S66.2,13,66.2,12.48V9.55H67.92z"/>
	<path class="st26" d="M75.54,7.31v8.16H73.9v-0.68c-0.42,0.51-1.04,0.77-1.85,0.77c-0.56,0-1.06-0.12-1.51-0.37
		c-0.45-0.25-0.8-0.6-1.06-1.07s-0.38-1-0.38-1.61c0-0.61,0.13-1.14,0.38-1.61s0.61-0.82,1.06-1.07c0.45-0.25,0.96-0.37,1.51-0.37
		c0.75,0,1.35,0.24,1.77,0.71V7.31H75.54z M73.43,13.7c0.29-0.3,0.43-0.69,0.43-1.19s-0.14-0.9-0.43-1.19
		c-0.29-0.3-0.65-0.45-1.08-0.45c-0.44,0-0.8,0.15-1.09,0.45c-0.29,0.3-0.43,0.69-0.43,1.19s0.14,0.9,0.43,1.19
		c0.29,0.3,0.65,0.45,1.09,0.45C72.78,14.15,73.14,14,73.43,13.7z"/>
	<path class="st26" d="M82.89,12.99h-4.48c0.08,0.37,0.27,0.66,0.57,0.87c0.3,0.21,0.67,0.32,1.12,0.32c0.31,0,0.58-0.05,0.82-0.14
		s0.46-0.24,0.67-0.43l0.91,0.99c-0.56,0.64-1.37,0.96-2.44,0.96c-0.67,0-1.26-0.13-1.77-0.39c-0.51-0.26-0.91-0.62-1.19-1.08
		c-0.28-0.46-0.42-0.99-0.42-1.57c0-0.58,0.14-1.1,0.41-1.57c0.27-0.47,0.65-0.83,1.13-1.09c0.48-0.26,1.02-0.39,1.61-0.39
		c0.58,0,1.1,0.12,1.57,0.37c0.47,0.25,0.84,0.61,1.11,1.07c0.27,0.47,0.4,1.01,0.4,1.62C82.92,12.55,82.91,12.71,82.89,12.99z
		 M78.88,11.09c-0.26,0.22-0.43,0.52-0.48,0.9h2.92c-0.06-0.37-0.22-0.67-0.48-0.9c-0.26-0.22-0.59-0.34-0.97-0.34
		C79.46,10.76,79.14,10.87,78.88,11.09z"/>
	<path class="st26" d="M89.44,10.12c0.45,0.44,0.68,1.09,0.68,1.96v3.39H88.4v-3.12c0-0.47-0.1-0.82-0.31-1.05
		c-0.21-0.23-0.5-0.35-0.89-0.35c-0.43,0-0.78,0.13-1.03,0.4c-0.26,0.27-0.38,0.67-0.38,1.19v2.93h-1.72V9.55h1.64v0.69
		c0.23-0.25,0.51-0.44,0.85-0.58c0.34-0.14,0.71-0.2,1.11-0.2C88.4,9.46,88.99,9.68,89.44,10.12z"/>
	<path class="st26" d="M95.49,15.18c-0.17,0.13-0.38,0.22-0.62,0.28c-0.25,0.06-0.5,0.09-0.78,0.09c-0.7,0-1.25-0.18-1.63-0.54
		c-0.38-0.36-0.58-0.89-0.58-1.58V11h-0.91V9.68h0.91V8.24h1.72v1.44h1.47V11h-1.47v2.41c0,0.25,0.06,0.44,0.19,0.58
		c0.13,0.14,0.31,0.2,0.54,0.2c0.27,0,0.5-0.07,0.69-0.22L95.49,15.18z"/>
	<path class="st26" d="M97,15.37c-0.47-0.12-0.84-0.27-1.12-0.46l0.57-1.23c0.26,0.17,0.58,0.31,0.96,0.41
		c0.37,0.11,0.74,0.16,1.1,0.16c0.73,0,1.09-0.18,1.09-0.54c0-0.17-0.1-0.29-0.3-0.36c-0.2-0.07-0.5-0.14-0.91-0.19
		c-0.48-0.07-0.88-0.16-1.2-0.25c-0.32-0.1-0.59-0.26-0.82-0.51c-0.23-0.24-0.35-0.59-0.35-1.03c0-0.37,0.11-0.71,0.32-1
		c0.22-0.29,0.53-0.52,0.95-0.68c0.41-0.16,0.9-0.24,1.47-0.24c0.42,0,0.83,0.05,1.25,0.14c0.41,0.09,0.76,0.22,1.03,0.38
		l-0.57,1.22c-0.52-0.29-1.09-0.44-1.71-0.44c-0.37,0-0.64,0.05-0.82,0.15c-0.18,0.1-0.28,0.23-0.28,0.4c0,0.18,0.1,0.31,0.3,0.39
		s0.51,0.14,0.95,0.21c0.48,0.08,0.88,0.17,1.19,0.26c0.31,0.09,0.58,0.26,0.8,0.5c0.23,0.24,0.34,0.58,0.34,1.01
		c0,0.37-0.11,0.69-0.33,0.98s-0.54,0.51-0.96,0.67s-0.92,0.24-1.5,0.24C97.95,15.56,97.47,15.5,97,15.37z"/>
	<path class="st26" d="M102.07,11.68h3.11v1.38h-3.11V11.68z"/>
	<path class="st26" d="M113.72,7.77v7.7h-1.78v-3.16h-3.5v3.16h-1.78v-7.7h1.78v3.04h3.5V7.77H113.72z"/>
	<path class="st26" d="M116.4,14.69c-0.61-0.61-0.92-1.48-0.92-2.61V7.77h1.78v4.25c0,1.38,0.57,2.07,1.72,2.07
		c0.56,0,0.98-0.17,1.28-0.5c0.29-0.33,0.44-0.86,0.44-1.57V7.77h1.76v4.31c0,1.13-0.31,2-0.92,2.61c-0.61,0.61-1.47,0.91-2.57,0.91
		S117.01,15.3,116.4,14.69z"/>
	<path class="st26" d="M130.9,12.16c0.25,0.33,0.37,0.73,0.37,1.2c0,0.67-0.26,1.19-0.79,1.56c-0.52,0.36-1.29,0.54-2.29,0.54h-3.98
		v-7.7h3.76c0.94,0,1.66,0.18,2.16,0.54c0.5,0.36,0.75,0.85,0.75,1.46c0,0.37-0.09,0.71-0.27,1c-0.18,0.29-0.43,0.52-0.75,0.69
		C130.31,11.6,130.66,11.84,130.9,12.16z M125.99,9.11v1.81h1.77c0.44,0,0.77-0.08,1-0.23c0.23-0.15,0.34-0.38,0.34-0.68
		s-0.11-0.53-0.34-0.68s-0.56-0.23-1-0.23H125.99z M129.13,13.89c0.24-0.15,0.36-0.39,0.36-0.71c0-0.64-0.47-0.96-1.42-0.96h-2.08
		v1.9h2.08C128.54,14.13,128.89,14.05,129.13,13.89z"/>
</g>
<g>
	<path class="st26" d="M55.66,30.43L54,28.06c-0.21,0.01-0.37,0.02-0.48,0.02h-1.9v2.34h-1.1v-7.7h3c1,0,1.78,0.24,2.35,0.71
		c0.57,0.48,0.86,1.13,0.86,1.97c0,0.59-0.15,1.1-0.44,1.52c-0.29,0.42-0.71,0.72-1.25,0.91l1.83,2.58H55.66z M55.08,26.7
		c0.37-0.3,0.55-0.73,0.55-1.29c0-0.56-0.18-0.99-0.55-1.28c-0.37-0.3-0.9-0.45-1.59-0.45h-1.87v3.46h1.87
		C54.18,27.15,54.71,27,55.08,26.7z"/>
	<path class="st26" d="M63.61,27.86h-4.73c0.07,0.51,0.29,0.93,0.68,1.24s0.86,0.47,1.44,0.47c0.7,0,1.26-0.23,1.68-0.7l0.58,0.68
		c-0.26,0.31-0.59,0.54-0.99,0.7c-0.39,0.16-0.83,0.24-1.31,0.24c-0.62,0-1.16-0.13-1.64-0.38s-0.85-0.61-1.11-1.06
		c-0.26-0.46-0.39-0.97-0.39-1.54c0-0.56,0.13-1.07,0.38-1.53c0.25-0.45,0.6-0.81,1.04-1.06c0.44-0.25,0.94-0.38,1.5-0.38
		c0.56,0,1.05,0.13,1.49,0.38c0.44,0.25,0.78,0.61,1.02,1.06c0.25,0.46,0.37,0.98,0.37,1.56C63.63,27.63,63.62,27.73,63.61,27.86z
		 M59.48,25.9c-0.34,0.31-0.54,0.71-0.6,1.21h3.74c-0.06-0.49-0.26-0.89-0.6-1.2s-0.76-0.47-1.27-0.47S59.82,25.59,59.48,25.9z"/>
	<path class="st26" d="M66.04,30.11c-0.47-0.26-0.83-0.61-1.09-1.06c-0.26-0.45-0.4-0.96-0.4-1.53s0.13-1.08,0.4-1.53
		c0.26-0.45,0.63-0.8,1.09-1.06s1-0.38,1.59-0.38c0.53,0,1,0.11,1.41,0.32c0.42,0.21,0.74,0.52,0.96,0.92l-0.8,0.52
		c-0.18-0.28-0.41-0.49-0.68-0.63s-0.57-0.21-0.9-0.21c-0.38,0-0.72,0.08-1.03,0.25c-0.3,0.17-0.54,0.41-0.72,0.72
		c-0.17,0.31-0.26,0.67-0.26,1.07c0,0.41,0.09,0.77,0.26,1.08c0.17,0.31,0.41,0.55,0.72,0.72c0.3,0.17,0.65,0.25,1.03,0.25
		c0.33,0,0.63-0.07,0.9-0.21c0.27-0.14,0.5-0.35,0.68-0.63l0.8,0.51c-0.23,0.4-0.55,0.71-0.96,0.93c-0.41,0.22-0.88,0.33-1.41,0.33
		C67.04,30.49,66.51,30.37,66.04,30.11z"/>
	<path class="st26" d="M73.2,24.81c0.36-0.18,0.8-0.26,1.31-0.26v1.02c-0.06-0.01-0.14-0.01-0.24-0.01c-0.57,0-1.02,0.17-1.35,0.51
		c-0.33,0.34-0.49,0.83-0.49,1.46v2.9h-1.06V24.6h1.01v0.98C72.57,25.24,72.84,24.98,73.2,24.81z"/>
	<path class="st26" d="M81.32,24.6v5.83h-1v-0.88c-0.21,0.3-0.49,0.53-0.84,0.7c-0.35,0.17-0.73,0.25-1.14,0.25
		c-0.78,0-1.39-0.21-1.84-0.64c-0.45-0.43-0.67-1.06-0.67-1.9V24.6h1.06v3.23c0,0.56,0.14,0.99,0.41,1.28s0.66,0.43,1.17,0.43
		c0.56,0,1-0.17,1.32-0.51c0.32-0.34,0.48-0.81,0.48-1.43V24.6H81.32z"/>
	<path class="st26" d="M83.35,23.28c-0.14-0.13-0.2-0.29-0.2-0.48s0.07-0.35,0.2-0.49s0.31-0.2,0.51-0.2c0.21,0,0.38,0.06,0.51,0.19
		c0.14,0.13,0.2,0.29,0.2,0.48c0,0.2-0.07,0.37-0.2,0.5s-0.31,0.2-0.51,0.2C83.65,23.48,83.48,23.41,83.35,23.28z M83.33,24.6h1.06
		v5.83h-1.06V24.6z"/>
	<path class="st26" d="M89.68,30.09c-0.15,0.13-0.34,0.23-0.57,0.3c-0.23,0.07-0.46,0.1-0.7,0.1c-0.59,0-1.04-0.16-1.36-0.47
		c-0.32-0.32-0.48-0.77-0.48-1.35v-3.2h-0.99V24.6h0.99v-1.28h1.06v1.28h1.67v0.87h-1.67v3.16c0,0.32,0.08,0.56,0.24,0.73
		c0.16,0.17,0.38,0.25,0.68,0.25c0.32,0,0.6-0.09,0.83-0.27L89.68,30.09z"/>
	<path class="st26" d="M90.97,23.28c-0.14-0.13-0.2-0.29-0.2-0.48s0.07-0.35,0.2-0.49s0.31-0.2,0.51-0.2c0.21,0,0.38,0.06,0.51,0.19
		c0.14,0.13,0.2,0.29,0.2,0.48c0,0.2-0.07,0.37-0.2,0.5s-0.31,0.2-0.51,0.2C91.27,23.48,91.1,23.41,90.97,23.28z M90.95,24.6h1.06
		v5.83h-1.06V24.6z"/>
	<path class="st26" d="M98.9,25.19c0.44,0.43,0.65,1.06,0.65,1.89v3.36H98.5v-3.23c0-0.56-0.14-0.99-0.41-1.28
		c-0.27-0.29-0.66-0.43-1.17-0.43c-0.57,0-1.02,0.17-1.35,0.5s-0.5,0.81-0.5,1.44v3h-1.06V24.6h1.01v0.88
		c0.21-0.3,0.5-0.53,0.86-0.69c0.36-0.16,0.78-0.24,1.24-0.24C97.87,24.54,98.46,24.76,98.9,25.19z"/>
	<path class="st26" d="M107.12,24.6v5.04c0,1.02-0.25,1.77-0.76,2.26c-0.51,0.49-1.26,0.73-2.27,0.73c-0.55,0-1.07-0.08-1.57-0.23
		c-0.5-0.15-0.9-0.37-1.21-0.64l0.51-0.81c0.27,0.24,0.61,0.42,1.01,0.56s0.81,0.2,1.24,0.2c0.68,0,1.19-0.16,1.51-0.48
		c0.33-0.32,0.49-0.81,0.49-1.47v-0.46c-0.25,0.3-0.56,0.53-0.92,0.68s-0.76,0.23-1.18,0.23c-0.56,0-1.06-0.12-1.51-0.36
		s-0.8-0.57-1.06-1s-0.38-0.92-0.38-1.47c0-0.55,0.13-1.04,0.38-1.47c0.26-0.43,0.61-0.76,1.06-1c0.45-0.23,0.96-0.35,1.51-0.35
		c0.44,0,0.85,0.08,1.23,0.24c0.38,0.16,0.69,0.4,0.93,0.71v-0.9H107.12z M105.11,29.02c0.3-0.16,0.54-0.39,0.71-0.68
		c0.17-0.29,0.26-0.62,0.26-0.98c0-0.56-0.19-1.02-0.56-1.37s-0.85-0.52-1.44-0.52c-0.59,0-1.08,0.17-1.45,0.52s-0.56,0.8-0.56,1.37
		c0,0.37,0.09,0.7,0.26,0.98c0.17,0.29,0.41,0.52,0.72,0.68c0.3,0.16,0.65,0.24,1.04,0.24C104.47,29.26,104.81,29.18,105.11,29.02z"
		/>
	<path class="st26" d="M116.07,25.14c0.43,0.4,0.64,0.99,0.64,1.77v3.52h-1v-0.77c-0.18,0.27-0.43,0.48-0.75,0.62
		s-0.71,0.21-1.16,0.21c-0.65,0-1.18-0.16-1.57-0.47c-0.39-0.32-0.59-0.73-0.59-1.24c0-0.51,0.19-0.93,0.56-1.24
		s0.97-0.47,1.78-0.47h1.67v-0.21c0-0.45-0.13-0.8-0.4-1.04c-0.26-0.24-0.65-0.36-1.17-0.36c-0.34,0-0.68,0.06-1.01,0.17
		c-0.33,0.11-0.61,0.27-0.84,0.46l-0.44-0.79c0.3-0.24,0.66-0.43,1.08-0.56s0.86-0.19,1.33-0.19
		C115.02,24.54,115.64,24.74,116.07,25.14z M115.02,29.41c0.29-0.18,0.51-0.43,0.64-0.76v-0.81h-1.63c-0.89,0-1.34,0.3-1.34,0.9
		c0,0.29,0.11,0.52,0.34,0.69c0.23,0.17,0.54,0.25,0.95,0.25S114.73,29.59,115.02,29.41z"/>
	<path class="st26" d="M124.28,24.6v5.04c0,1.02-0.25,1.77-0.76,2.26c-0.51,0.49-1.26,0.73-2.27,0.73c-0.55,0-1.07-0.08-1.57-0.23
		c-0.5-0.15-0.9-0.37-1.21-0.64l0.51-0.81c0.27,0.24,0.61,0.42,1.01,0.56s0.81,0.2,1.24,0.2c0.68,0,1.19-0.16,1.51-0.48
		c0.33-0.32,0.49-0.81,0.49-1.47v-0.46c-0.25,0.3-0.56,0.53-0.92,0.68s-0.76,0.23-1.18,0.23c-0.56,0-1.06-0.12-1.51-0.36
		s-0.8-0.57-1.06-1s-0.38-0.92-0.38-1.47c0-0.55,0.13-1.04,0.38-1.47c0.26-0.43,0.61-0.76,1.06-1c0.45-0.23,0.96-0.35,1.51-0.35
		c0.44,0,0.85,0.08,1.23,0.24c0.38,0.16,0.69,0.4,0.93,0.71v-0.9H124.28z M122.27,29.02c0.3-0.16,0.54-0.39,0.71-0.68
		c0.17-0.29,0.26-0.62,0.26-0.98c0-0.56-0.19-1.02-0.56-1.37s-0.85-0.52-1.44-0.52c-0.59,0-1.08,0.17-1.45,0.52s-0.56,0.8-0.56,1.37
		c0,0.37,0.09,0.7,0.26,0.98c0.17,0.29,0.41,0.52,0.72,0.68c0.3,0.16,0.65,0.24,1.04,0.24C121.63,29.26,121.97,29.18,122.27,29.02z"
		/>
	<path class="st26" d="M131.54,27.86h-4.73c0.07,0.51,0.29,0.93,0.68,1.24s0.86,0.47,1.44,0.47c0.7,0,1.26-0.23,1.68-0.7l0.58,0.68
		c-0.26,0.31-0.59,0.54-0.99,0.7c-0.39,0.16-0.83,0.24-1.31,0.24c-0.62,0-1.16-0.13-1.64-0.38s-0.85-0.61-1.11-1.06
		c-0.26-0.46-0.39-0.97-0.39-1.54c0-0.56,0.13-1.07,0.38-1.53c0.25-0.45,0.6-0.81,1.04-1.06c0.44-0.25,0.94-0.38,1.5-0.38
		c0.56,0,1.05,0.13,1.49,0.38c0.44,0.25,0.78,0.61,1.02,1.06c0.25,0.46,0.37,0.98,0.37,1.56C131.56,27.63,131.56,27.73,131.54,27.86
		z M127.41,25.9c-0.34,0.31-0.54,0.71-0.6,1.21h3.74c-0.06-0.49-0.26-0.89-0.6-1.2s-0.76-0.47-1.27-0.47S127.75,25.59,127.41,25.9z"
		/>
	<path class="st26" d="M137.91,25.19c0.44,0.43,0.65,1.06,0.65,1.89v3.36h-1.06v-3.23c0-0.56-0.14-0.99-0.41-1.28
		c-0.27-0.29-0.66-0.43-1.17-0.43c-0.57,0-1.02,0.17-1.35,0.5s-0.5,0.81-0.5,1.44v3h-1.06V24.6h1.01v0.88
		c0.21-0.3,0.5-0.53,0.86-0.69c0.36-0.16,0.78-0.24,1.24-0.24C136.88,24.54,137.47,24.76,137.91,25.19z"/>
	<path class="st26" d="M141.5,30.11c-0.47-0.26-0.83-0.61-1.09-1.06c-0.26-0.45-0.4-0.96-0.4-1.53s0.13-1.08,0.4-1.53
		c0.26-0.45,0.63-0.8,1.09-1.06s1-0.38,1.59-0.38c0.53,0,1,0.11,1.41,0.32c0.42,0.21,0.74,0.52,0.96,0.92l-0.8,0.52
		c-0.18-0.28-0.41-0.49-0.68-0.63s-0.57-0.21-0.9-0.21c-0.38,0-0.72,0.08-1.03,0.25c-0.3,0.17-0.54,0.41-0.72,0.72
		c-0.17,0.31-0.26,0.67-0.26,1.07c0,0.41,0.09,0.77,0.26,1.08c0.17,0.31,0.41,0.55,0.72,0.72c0.3,0.17,0.65,0.25,1.03,0.25
		c0.33,0,0.63-0.07,0.9-0.21c0.27-0.14,0.5-0.35,0.68-0.63l0.8,0.51c-0.23,0.4-0.55,0.71-0.96,0.93c-0.41,0.22-0.88,0.33-1.41,0.33
		C142.5,30.49,141.97,30.37,141.5,30.11z"/>
	<path class="st26" d="M151.91,24.6l-2.83,6.41c-0.25,0.59-0.54,1.01-0.87,1.25c-0.33,0.24-0.74,0.36-1.21,0.36
		c-0.29,0-0.56-0.05-0.83-0.14c-0.27-0.09-0.49-0.23-0.67-0.4l0.45-0.79c0.3,0.29,0.65,0.43,1.04,0.43c0.26,0,0.47-0.07,0.64-0.2
		s0.33-0.37,0.47-0.7l0.19-0.41l-2.57-5.82h1.1l2.04,4.66l2.01-4.66H151.91z"/>
</g>
</svg>
