<svg width="135" height="46" viewBox="0 0 135 46" fill="none" xmlns="http://www.w3.org/2000/svg">
<path d="M18.256 4.8L14.592 16H11.808L9.344 8.416L6.8 16H4.032L0.352 4.8H3.04L5.568 12.672L8.208 4.8H10.608L13.168 12.736L15.776 4.8H18.256ZM24.9864 16.192C23.8237 16.192 22.773 15.9413 21.8344 15.44C20.9064 14.9387 20.1757 14.2507 19.6424 13.376C19.1197 12.4907 18.8584 11.4987 18.8584 10.4C18.8584 9.30133 19.1197 8.31467 19.6424 7.44C20.1757 6.55467 20.9064 5.86133 21.8344 5.36C22.773 4.85867 23.8237 4.608 24.9864 4.608C26.149 4.608 27.1944 4.85867 28.1224 5.36C29.0504 5.86133 29.781 6.55467 30.3144 7.44C30.8477 8.31467 31.1144 9.30133 31.1144 10.4C31.1144 11.4987 30.8477 12.4907 30.3144 13.376C29.781 14.2507 29.0504 14.9387 28.1224 15.44C27.1944 15.9413 26.149 16.192 24.9864 16.192ZM24.9864 13.984C25.6477 13.984 26.245 13.8347 26.7784 13.536C27.3117 13.2267 27.7277 12.8 28.0264 12.256C28.3357 11.712 28.4904 11.0933 28.4904 10.4C28.4904 9.70667 28.3357 9.088 28.0264 8.544C27.7277 8 27.3117 7.57867 26.7784 7.28C26.245 6.97067 25.6477 6.816 24.9864 6.816C24.325 6.816 23.7277 6.97067 23.1944 7.28C22.661 7.57867 22.2397 8 21.9304 8.544C21.6317 9.088 21.4824 9.70667 21.4824 10.4C21.4824 11.0933 21.6317 11.712 21.9304 12.256C22.2397 12.8 22.661 13.2267 23.1944 13.536C23.7277 13.8347 24.325 13.984 24.9864 13.984ZM40.1984 16L38.0384 12.88H37.9104H35.6544V16H33.0624V4.8H37.9104C38.9024 4.8 39.761 4.96533 40.4864 5.296C41.2224 5.62667 41.7877 6.096 42.1824 6.704C42.577 7.312 42.7744 8.032 42.7744 8.864C42.7744 9.696 42.5717 10.416 42.1664 11.024C41.7717 11.6213 41.2064 12.08 40.4704 12.4L42.9824 16H40.1984ZM40.1504 8.864C40.1504 8.23467 39.9477 7.75467 39.5424 7.424C39.137 7.08267 38.545 6.912 37.7664 6.912H35.6544V10.816H37.7664C38.545 10.816 39.137 10.6453 39.5424 10.304C39.9477 9.96267 40.1504 9.48267 40.1504 8.864ZM48.908 11.6L47.404 13.168V16H44.828V4.8H47.404V10.032L52.364 4.8H55.244L50.604 9.792L55.516 16H52.492L48.908 11.6ZM72.5855 6.912H69.0015V4.8H78.7615V6.912H75.1775V16H72.5855V6.912ZM87.2921 16L85.1321 12.88H85.0041H82.7481V16H80.1561V4.8H85.0041C85.9961 4.8 86.8548 4.96533 87.5801 5.296C88.3161 5.62667 88.8815 6.096 89.2761 6.704C89.6708 7.312 89.8681 8.032 89.8681 8.864C89.8681 9.696 89.6655 10.416 89.2601 11.024C88.8655 11.6213 88.3001 12.08 87.5641 12.4L90.0761 16H87.2921ZM87.2441 8.864C87.2441 8.23467 87.0415 7.75467 86.6361 7.424C86.2308 7.08267 85.6388 6.912 84.8601 6.912H82.7481V10.816H84.8601C85.6388 10.816 86.2308 10.6453 86.6361 10.304C87.0415 9.96267 87.2441 9.48267 87.2441 8.864ZM99.2978 13.6H94.0978L93.1058 16H90.4497L95.4418 4.8H98.0018L103.01 16H100.29L99.2978 13.6ZM98.4818 11.632L96.7058 7.344L94.9298 11.632H98.4818ZM114.33 4.8L109.482 16H106.922L102.09 4.8H104.89L108.298 12.8L111.754 4.8H114.33ZM123.938 13.92V16H115.266V4.8H123.73V6.88H117.842V9.312H123.042V11.328H117.842V13.92H123.938ZM126 4.8H128.592V13.888H134.208V16H126V4.8Z" fill="white"/>
<path d="M13.936 31.24H18.136V38.2C17.176 38.888 16.072 39.416 14.824 39.784C13.576 40.152 12.328 40.336 11.08 40.336C9.32 40.336 7.736 39.968 6.328 39.232C4.92 38.48 3.816 37.44 3.016 36.112C2.216 34.784 1.816 33.28 1.816 31.6C1.816 29.92 2.216 28.416 3.016 27.088C3.816 25.76 4.928 24.728 6.352 23.992C7.776 23.24 9.384 22.864 11.176 22.864C12.744 22.864 14.152 23.128 15.4 23.656C16.648 24.184 17.688 24.944 18.52 25.936L15.496 28.672C14.36 27.424 13 26.8 11.416 26.8C9.976 26.8 8.816 27.24 7.936 28.12C7.056 28.984 6.616 30.144 6.616 31.6C6.616 32.528 6.816 33.36 7.216 34.096C7.616 34.816 8.176 35.384 8.896 35.8C9.616 36.2 10.44 36.4 11.368 36.4C12.28 36.4 13.136 36.216 13.936 35.848V31.24ZM34.6368 36.328V40H21.1488V23.2H34.3248V26.872H25.8528V29.704H33.3168V33.256H25.8528V36.328H34.6368ZM44.6178 35.536H42.0258V40H37.2738V23.2H44.9538C46.4738 23.2 47.7938 23.456 48.9138 23.968C50.0338 24.464 50.8978 25.184 51.5058 26.128C52.1138 27.056 52.4178 28.152 52.4178 29.416C52.4178 30.632 52.1298 31.696 51.5538 32.608C50.9938 33.504 50.1858 34.208 49.1298 34.72L52.7538 40H47.6658L44.6178 35.536ZM47.6178 29.416C47.6178 28.632 47.3698 28.024 46.8738 27.592C46.3778 27.16 45.6418 26.944 44.6658 26.944H42.0258V31.864H44.6658C45.6418 31.864 46.3778 31.656 46.8738 31.24C47.3698 30.808 47.6178 30.2 47.6178 29.416ZM70.2074 40L70.1594 31.096L65.8394 38.344H63.7274L59.4314 31.336V40H55.0394V23.2H58.9514L64.8554 32.896L70.6154 23.2H74.5274L74.5754 40H70.2074ZM89.1938 36.736H82.0898L80.7698 40H75.9218L83.3378 23.2H88.0178L95.4578 40H90.5138L89.1938 36.736ZM87.8018 33.232L85.6418 27.856L83.4818 33.232H87.8018ZM112.789 23.2V40H108.877L101.461 31.048V40H96.805V23.2H100.717L108.133 32.152V23.2H112.789ZM125.141 33.976V40H120.389V33.904L113.981 23.2H118.997L122.981 29.872L126.965 23.2H131.573L125.141 33.976Z" fill="white"/>
<path d="M64.25 13.28L64.25 14.905L65 15.215L65 16.045L61.5 14.485L61.5 13.685L65 12.12L65 12.97L64.25 13.28ZM63.635 13.535L62.295 14.09L63.635 14.645L63.635 13.535ZM61.5 8.54687L65 8.54687L65 9.21187L62.875 10.9569L65 10.9569L65 11.7569L61.5 11.7569L61.5 11.0869L63.625 9.34687L61.5 9.34687L61.5 8.54687ZM61.5 7.71879L61.5 6.12879C61.5 5.74879 61.5733 5.41379 61.72 5.12379C61.8633 4.83046 62.0667 4.60379 62.33 4.44379C62.5933 4.28046 62.9 4.19879 63.25 4.19879C63.6 4.19879 63.9067 4.28046 64.17 4.44379C64.4333 4.60379 64.6383 4.83046 64.785 5.12379C64.9283 5.41379 65 5.74879 65 6.12879L65 7.71879L61.5 7.71879ZM64.335 6.16879C64.335 5.81879 64.2383 5.54046 64.045 5.33379C63.8483 5.12379 63.5833 5.01879 63.25 5.01879C62.9167 5.01879 62.6533 5.12379 62.46 5.33379C62.2633 5.54046 62.165 5.81879 62.165 6.16879L62.165 6.90879L64.335 6.90879L64.335 6.16879Z" fill="white"/>
</svg>
