<svg width="255" height="93" viewBox="0 0 255 93" fill="none" xmlns="http://www.w3.org/2000/svg">
<path d="M34.4837 9.70409L27.5628 32.3476H22.3041L17.6499 17.0147L12.8446 32.3476H7.61615L0.665039 9.70409H5.74237L10.5175 25.6192L15.5041 9.70409H20.0375L24.873 25.7486L29.7993 9.70409H34.4837ZM47.1967 32.7357C45.0005 32.7357 43.0158 32.2289 41.2429 31.2154C39.49 30.2019 38.1098 28.8109 37.1025 27.0425C36.1151 25.2527 35.6216 23.2471 35.6216 21.0258C35.6216 18.8046 36.1151 16.8098 37.1025 15.0415C38.1098 13.2516 39.49 11.8498 41.2429 10.8363C43.0158 9.82271 45.0005 9.31592 47.1967 9.31592C49.3927 9.31592 51.3674 9.82271 53.1202 10.8363C54.8731 11.8498 56.2532 13.2516 57.2607 15.0415C58.268 16.8098 58.7718 18.8046 58.7718 21.0258C58.7718 23.2471 58.268 25.2527 57.2607 27.0425C56.2532 28.8109 54.8731 30.2019 53.1202 31.2154C51.3674 32.2289 49.3927 32.7357 47.1967 32.7357ZM47.1967 28.2717C48.4458 28.2717 49.574 27.9699 50.5816 27.366C51.5889 26.7407 52.3747 25.878 52.9389 24.7782C53.5231 23.6784 53.8153 22.4275 53.8153 21.0258C53.8153 19.6241 53.5231 18.3733 52.9389 17.2735C52.3747 16.1737 51.5889 15.3218 50.5816 14.718C49.574 14.0926 48.4458 13.7799 47.1967 13.7799C45.9474 13.7799 44.8191 14.0926 43.8118 14.718C42.8043 15.3218 42.0085 16.1737 41.4242 17.2735C40.86 18.3733 40.578 19.6241 40.578 21.0258C40.578 22.4275 40.86 23.6784 41.4242 24.7782C42.0085 25.878 42.8043 26.7407 43.8118 27.366C44.8191 27.9699 45.9474 28.2717 47.1967 28.2717ZM75.9305 32.3476L71.8505 26.0397H71.6087H67.3473V32.3476H62.4513V9.70409H71.6087C73.4825 9.70409 75.1043 10.0383 76.4745 10.7069C77.8647 11.3754 78.9325 12.3243 79.678 13.5535C80.4234 14.7827 80.7962 16.2384 80.7962 17.9204C80.7962 19.6025 80.4134 21.0582 79.6478 22.2874C78.9022 23.495 77.8345 24.4224 76.4442 25.0693L81.1891 32.3476H75.9305ZM75.8398 17.9204C75.8398 16.6481 75.4569 15.6777 74.6913 15.0091C73.9256 14.3191 72.8074 13.974 71.3367 13.974H67.3473V21.8669H71.3367C72.8074 21.8669 73.9256 21.5218 74.6913 20.8317C75.4569 20.1417 75.8398 19.1712 75.8398 17.9204ZM92.3819 23.4519L89.541 26.622V32.3476H84.6753V9.70409H89.541V20.2818L98.9099 9.70409H104.35L95.5855 19.7966L104.864 32.3476H99.1517L92.3819 23.4519ZM137.106 13.974H130.336V9.70409H148.772V13.974H142.002V32.3476H137.106V13.974ZM164.885 32.3476L160.805 26.0397H160.563H156.302V32.3476H151.406V9.70409H160.563C162.437 9.70409 164.059 10.0383 165.429 10.7069C166.819 11.3754 167.887 12.3243 168.633 13.5535C169.378 14.7827 169.751 16.2384 169.751 17.9204C169.751 19.6025 169.368 21.0582 168.603 22.2874C167.857 23.495 166.789 24.4224 165.399 25.0693L170.144 32.3476H164.885ZM164.795 17.9204C164.795 16.6481 164.412 15.6777 163.646 15.0091C162.881 14.3191 161.762 13.974 160.291 13.974H156.302V21.8669H160.291C161.762 21.8669 162.881 21.5218 163.646 20.8317C164.412 20.1417 164.795 19.1712 164.795 17.9204ZM187.563 27.4954H177.74L175.867 32.3476H170.85L180.279 9.70409H185.115L194.575 32.3476H189.437L187.563 27.4954ZM186.021 23.5166L182.667 14.8474L179.312 23.5166H186.021ZM215.957 9.70409L206.799 32.3476H201.964L192.837 9.70409H198.126L204.563 25.878L211.091 9.70409H215.957ZM234.105 28.1424V32.3476H217.725V9.70409H233.712V13.9093H222.591V18.8262H232.413V22.902H222.591V28.1424H234.105ZM238 9.70409H242.896V28.0777H253.504V32.3476H238V9.70409Z" fill="white"/>
<path d="M26.323 63.1592H34.2563V77.2305C32.443 78.6215 30.3577 79.6889 28.0004 80.4329C25.643 81.1769 23.2857 81.5489 20.9284 81.5489C17.6039 81.5489 14.6119 80.8049 11.9524 79.3169C9.2928 77.7966 7.20746 75.694 5.69635 73.0091C4.18524 70.3242 3.42969 67.2835 3.42969 63.887C3.42969 60.4905 4.18524 57.4498 5.69635 54.7649C7.20746 52.0801 9.30791 49.9936 11.9977 48.5056C14.6875 46.9853 17.7248 46.2251 21.1097 46.2251C24.0715 46.2251 26.731 46.7588 29.0884 47.8263C31.4457 48.8938 33.4101 50.4303 34.9817 52.4359L29.2697 57.9674C27.1239 55.4442 24.555 54.1827 21.563 54.1827C18.843 54.1827 16.6519 55.0722 14.9897 56.8514C13.3275 58.5981 12.4964 60.9434 12.4964 63.887C12.4964 65.7632 12.8741 67.4453 13.6297 68.9333C14.3852 70.3889 15.443 71.5373 16.803 72.3783C18.163 73.187 19.7195 73.5914 21.4724 73.5914C23.195 73.5914 24.8119 73.2194 26.323 72.4754V63.1592ZM65.4245 73.4458V80.8696H39.9472V46.9044H64.8352V54.3282H48.8325V60.0538H62.9312V67.235H48.8325V73.4458H65.4245ZM84.2775 71.8446H79.3815V80.8696H70.4055V46.9044H84.9122C87.7833 46.9044 90.2766 47.422 92.3922 48.4571C94.5077 49.4599 96.1397 50.9155 97.2882 52.8241C98.4366 54.7002 99.0108 56.9161 99.0108 59.4715C99.0108 61.93 98.4669 64.0811 97.3789 65.9249C96.3211 67.7364 94.7948 69.1597 92.8002 70.1948L99.6455 80.8696H90.0349L84.2775 71.8446ZM89.9442 59.4715C89.9442 57.8865 89.4757 56.6573 88.5389 55.7839C87.602 54.9105 86.2117 54.4738 84.3682 54.4738H79.3815V64.4208H84.3682C86.2117 64.4208 87.602 64.0002 88.5389 63.1592C89.4757 62.2858 89.9442 61.0566 89.9442 59.4715ZM132.613 80.8696L132.523 62.8681L124.363 77.5216H120.373L112.259 63.3533V80.8696H103.963V46.9044H111.352L122.504 66.5072L133.384 46.9044H140.773L140.864 80.8696H132.613ZM168.477 74.2707H155.058L152.565 80.8696H143.407L157.415 46.9044H166.255L180.309 80.8696H170.97L168.477 74.2707ZM165.847 67.1865L161.767 56.3176L157.687 67.1865H165.847ZM213.045 46.9044V80.8696H205.656L191.648 62.771V80.8696H182.853V46.9044H190.243L204.251 65.003V46.9044H213.045ZM236.377 68.6907V80.8696H227.401V68.5451L215.297 46.9044H224.772L232.297 60.3934L239.822 46.9044H248.526L236.377 68.6907Z" fill="white"/>
<path d="M121.361 26.8486V30.1339L122.778 30.7607V32.4387L116.167 29.2848V27.6674L122.778 24.5034V26.2219L121.361 26.8486ZM120.2 27.3642L117.669 28.4862L120.2 29.6083V27.3642ZM116.167 17.2795H122.778V18.6239L118.764 22.1519H122.778V23.7693H116.167V22.4147L120.181 18.8968H116.167V17.2795ZM116.167 15.6053V12.3907C116.167 11.6225 116.305 10.9452 116.583 10.3589C116.853 9.76584 117.237 9.30757 117.735 8.9841C118.232 8.65388 118.811 8.48877 119.473 8.48877C120.134 8.48877 120.713 8.65388 121.21 8.9841C121.708 9.30757 122.095 9.76584 122.372 10.3589C122.643 10.9452 122.778 11.6225 122.778 12.3907V15.6053H116.167ZM121.522 12.4716C121.522 11.764 121.339 11.2013 120.974 10.7834C120.603 10.3589 120.102 10.1466 119.473 10.1466C118.843 10.1466 118.345 10.3589 117.98 10.7834C117.609 11.2013 117.423 11.764 117.423 12.4716V13.9677H121.522V12.4716Z" fill="white"/>
</svg>
