<svg width="21" height="19" viewBox="0 0 21 19" fill="none" xmlns="http://www.w3.org/2000/svg">
<path d="M2.92448 4.24996C2.39948 4.24996 1.84531 4.0166 1.46615 3.63743C1.08698 3.25826 0.882812 2.73329 0.882812 2.20829C0.882812 1.68329 1.11615 1.15829 1.46615 0.749959C1.84531 0.370793 2.37031 0.166626 2.92448 0.166626C3.44948 0.166626 3.97448 0.399959 4.35364 0.749959C4.73281 1.12913 4.96615 1.65413 4.96615 2.20829C4.96615 2.73329 4.73281 3.25826 4.35364 3.63743C4.00364 4.04576 3.44948 4.24996 2.92448 4.24996ZM11.9661 3.63743C12.3453 3.25826 12.5786 2.73329 12.5786 2.20829C12.5786 1.68329 12.3453 1.15829 11.9661 0.749959C11.587 0.370793 11.062 0.166626 10.537 0.166626C10.012 0.166626 9.45782 0.399959 9.07865 0.749959C8.69948 1.12913 8.49531 1.65413 8.49531 2.20829C8.49531 2.73329 8.72865 3.25826 9.07865 3.63743C9.45782 4.0166 9.98281 4.24996 10.537 4.24996C11.0328 4.24996 11.587 4.04576 11.9661 3.63743ZM19.5495 3.63743C19.9286 3.25826 20.162 2.73329 20.162 2.20829C20.162 1.68329 19.9286 1.15829 19.5495 0.749959C19.1703 0.370793 18.6453 0.166626 18.1203 0.166626C17.5953 0.166626 17.0411 0.399959 16.662 0.749959C16.2828 1.12913 16.0786 1.65413 16.0786 2.20829C16.0786 2.73329 16.312 3.25826 16.662 3.63743C17.0411 4.0166 17.5661 4.24996 18.1203 4.24996C18.6161 4.24996 19.1703 4.04576 19.5495 3.63743ZM4.38281 10.9291C4.76198 10.5499 4.99531 10.025 4.99531 9.49996C4.99531 8.97496 4.76198 8.44996 4.38281 8.04163C4.00365 7.66246 3.47865 7.45829 2.95365 7.45829C2.42865 7.45829 1.87448 7.69163 1.49531 8.04163C1.11615 8.42079 0.911981 8.94579 0.911981 9.49996C0.911981 10.025 1.14531 10.5499 1.49531 10.9291C1.87448 11.3083 2.39948 11.5416 2.95365 11.5416C3.44948 11.5416 4.00365 11.3374 4.38281 10.9291ZM11.9661 10.9291C12.3453 10.5499 12.5786 10.025 12.5786 9.49996C12.5786 8.97496 12.3453 8.44996 11.9661 8.04163C11.587 7.66246 11.062 7.45829 10.537 7.45829C10.012 7.45829 9.45782 7.69163 9.07865 8.04163C8.69948 8.42079 8.49531 8.94579 8.49531 9.49996C8.49531 10.025 8.72865 10.5499 9.07865 10.9291C9.45782 11.3083 9.98281 11.5416 10.537 11.5416C11.0328 11.5416 11.587 11.3374 11.9661 10.9291ZM19.5495 10.9291C19.9286 10.5499 20.162 10.025 20.162 9.49996C20.162 8.97496 19.9286 8.44996 19.5495 8.04163C19.1703 7.66246 18.6453 7.45829 18.1203 7.45829C17.5953 7.45829 17.0411 7.69163 16.662 8.04163C16.2828 8.42079 16.0786 8.94579 16.0786 9.49996C16.0786 10.025 16.312 10.5499 16.662 10.9291C17.0411 11.3083 17.5661 11.5416 18.1203 11.5416C18.6161 11.5416 19.1703 11.3374 19.5495 10.9291ZM4.38281 18.2208C4.76198 17.8416 4.99531 17.3166 4.99531 16.7916C4.99531 16.2666 4.76198 15.7416 4.38281 15.3333C4.00365 14.9541 3.47865 14.75 2.95365 14.75C2.42865 14.75 1.87448 14.9833 1.49531 15.3333C1.11615 15.7125 0.911981 16.2375 0.911981 16.7916C0.911981 17.3166 1.14531 17.8416 1.49531 18.2208C1.87448 18.5999 2.39948 18.8333 2.95365 18.8333C3.44948 18.8333 4.00365 18.6291 4.38281 18.2208ZM11.9661 18.2208C12.3453 17.8416 12.5786 17.3166 12.5786 16.7916C12.5786 16.2666 12.3453 15.7416 11.9661 15.3333C11.587 14.9541 11.062 14.75 10.537 14.75C10.012 14.75 9.45782 14.9833 9.07865 15.3333C8.69948 15.7125 8.49531 16.2375 8.49531 16.7916C8.49531 17.3166 8.72865 17.8416 9.07865 18.2208C9.45782 18.5999 9.98281 18.8333 10.537 18.8333C11.0328 18.8333 11.587 18.6291 11.9661 18.2208ZM19.5495 18.2208C19.9286 17.8416 20.162 17.3166 20.162 16.7916C20.162 16.2666 19.9286 15.7416 19.5495 15.3333C19.1703 14.9541 18.6453 14.75 18.1203 14.75C17.5953 14.75 17.0411 14.9833 16.662 15.3333C16.2828 15.7125 16.0786 16.2375 16.0786 16.7916C16.0786 17.3166 16.312 17.8416 16.662 18.2208C17.0411 18.5999 17.5661 18.8333 18.1203 18.8333C18.6161 18.8333 19.1703 18.6291 19.5495 18.2208Z" fill="white"/>
</svg>
