<svg width="24" height="22" viewBox="0 0 24 22" fill="none" xmlns="http://www.w3.org/2000/svg">
<path d="M12.0063 13.7749C15.7063 13.7749 18.7313 10.7499 18.7313 7.02493C18.7313 3.29993 15.7063 0.274927 12.0063 0.274927C8.30635 0.274927 5.28135 3.29993 5.28135 7.02493C5.28135 10.7499 8.30635 13.7749 12.0063 13.7749ZM12.0063 2.2499C14.6063 2.2499 16.7313 4.3749 16.7313 6.9999C16.7313 9.6249 14.6063 11.7499 12.0063 11.7499C9.40635 11.7499 7.28135 9.6249 7.28135 6.9999C7.28135 4.3749 9.40635 2.2499 12.0063 2.2499ZM15.1313 14.4249C14.8063 14.3249 14.4314 14.3999 14.1814 14.6249L12.0063 16.4749L9.83134 14.6249C9.55634 14.3999 9.20635 14.3249 8.88135 14.4249C7.48135 14.8749 0.506348 17.2749 0.506348 20.7499C0.506348 21.2999 0.956348 21.7499 1.50635 21.7499H22.5063C23.0563 21.7499 23.5063 21.2999 23.5063 20.7499C23.5063 17.2749 16.5313 14.8749 15.1313 14.4249ZM3.03135 19.7499C4.13135 18.5749 6.78135 17.2749 8.98135 16.5249L11.3563 18.5499C11.7313 18.8749 12.2813 18.8749 12.6563 18.5499L15.0313 16.5249C17.2313 17.2999 19.8813 18.5999 20.9813 19.7499H3.03135Z" fill="#D1D1FF"/>
</svg>
