<svg width="24" height="20" viewBox="0 0 24 20" fill="none" xmlns="http://www.w3.org/2000/svg">
<path d="M15.5063 13.675V18.25C15.5063 18.8 15.1063 19.25 14.5563 19.25H1.50635C0.956348 19.25 0.506348 18.8 0.506348 18.25V1.75C0.506348 1.2 0.956348 0.75 1.50635 0.75H14.5563C15.1063 0.75 15.5063 1.2 15.5063 1.75V6.32501C15.5063 6.87501 15.0563 7.32501 14.5063 7.32501C13.9563 7.32501 13.5063 6.87501 13.5063 6.32501V2.75H2.50635V17.25H13.5063V13.675C13.5063 13.125 13.9563 12.675 14.5063 12.675C15.0563 12.675 15.5063 13.125 15.5063 13.675ZM23.2064 9.25L19.2814 5.29999C18.8814 4.89999 18.2563 4.89999 17.8563 5.29999C17.4563 5.69999 17.4563 6.32498 17.8563 6.72498L20.0814 8.97498L7.95636 9C7.40636 9 6.95636 9.45 6.95636 10C6.95636 10.55 7.40636 11 7.95636 11L20.0814 10.975L17.8563 13.225C17.4563 13.625 17.4813 14.25 17.8563 14.65C18.0563 14.85 18.3063 14.95 18.5563 14.95C18.8063 14.95 19.0813 14.85 19.2563 14.65L23.1813 10.7C23.6063 10.275 23.6064 9.65 23.2064 9.25Z" fill="#D1D1FF"/>
</svg>
