<svg width="320" height="635" viewBox="0 0 320 635" fill="none" xmlns="http://www.w3.org/2000/svg">
<path d="M56.9355 364.252C94.5053 347.299 148.544 356.577 195.745 368.719C242.873 380.918 283.016 395.981 299.412 420.894C315.734 445.865 308.234 480.63 289.192 510.584C270.15 540.538 239.565 565.738 197.951 577.593C156.337 589.449 103.622 588.017 65.0229 567.456C26.4238 546.838 1.86735 507.148 0.102816 465.739C-1.66172 424.331 19.3656 381.204 56.9355 364.252Z" fill="#CFF4FE" fill-opacity="0.26"/>
<path d="M40.6605 481.48C39.7236 439.487 66.1852 386.464 60.8603 337.203C55.5354 287.941 18.4241 242.442 16.3995 196.034C14.4728 149.534 47.6328 102.124 84.5996 85.5053C121.491 68.8731 162.189 83.0317 189.51 108.505C216.808 134.084 230.827 170.886 252.465 200.242C274.103 229.599 303.308 251.393 317.058 289.448C330.808 327.504 329.006 381.913 310.002 426.054C290.923 470.182 254.62 504.147 216.458 528.901C178.295 553.655 138.251 569.302 104.125 561.711C69.9021 554.211 41.6198 523.368 40.6605 481.48Z" fill="#58C0F9" fill-opacity="0.26"/>
<path d="M28.0495 439.207C33.5266 411.154 65.1923 383.719 67.8343 349.589C70.4763 315.459 44.0947 274.634 49.2623 243.345C54.5313 212.024 91.3496 190.239 126.945 189.925C162.474 189.58 196.781 210.707 217.409 235.455C238.002 260.265 245.017 288.664 259.974 314.339C274.93 340.013 297.799 362.871 304.385 392.021C310.971 421.172 301.175 456.648 277.522 480.361C253.804 504.044 216.194 516.026 178.305 521.376C140.416 526.727 102.211 525.509 72.801 510.626C43.2895 495.775 22.608 467.197 28.0495 439.207Z" fill="#58C0F9" fill-opacity="0.53"/>
<path d="M6.35977 76.6629C25.5181 39.5949 72.6562 41.6519 116.178 50.0904C159.677 58.6411 199.447 73.6092 226.603 110.585C253.737 147.673 268.167 206.693 270.882 260.619C273.597 314.546 264.632 363.474 239.385 393.145C214.138 422.816 172.586 433.343 130.811 408.953C89.0023 384.469 46.9466 325.18 21.4963 257.496C-3.9539 189.811 -12.7986 113.731 6.35977 76.6629Z" fill="#70BEFE" fill-opacity="0.1"/>
</svg>
