<svg width="1679" height="838" viewBox="0 0 1679 838" fill="none" xmlns="http://www.w3.org/2000/svg">
<path d="M1523.48 175.889C1594.52 229.715 1555.64 307.135 1504.76 374.759C1453.64 442.277 1390.52 499.789 1286.12 523.279C1181.48 546.663 1035.8 535.919 910.281 508.637C784.761 481.356 679.161 437.537 629.481 377.919C579.801 318.3 585.801 242.776 671.961 187.476C758.361 132.176 924.681 96.9946 1098.2 94.4666C1271.72 91.9386 1452.44 122.064 1523.48 175.889Z" fill="#70BEFE" fill-opacity="0.18"/>
<path d="M1556.31 118.967C1638.9 181.371 1618.61 294.632 1584.21 396.381C1549.55 498.024 1500.72 587.865 1403.27 637.658C1305.55 687.344 1159.42 696.797 1029.31 680.081C899.201 663.365 784.876 620.521 722 546.567C659.124 472.614 647.436 367.446 719.493 276.817C791.786 186.149 947.562 109.914 1118.05 77.5173C1288.53 45.1207 1473.73 56.5625 1556.31 118.967Z" fill="#70BEFE" fill-opacity="0.18"/>
<path d="M991.235 214.655C1062.27 282.394 1023.39 379.827 972.517 464.931C921.403 549.903 858.29 622.281 753.902 651.843C649.274 681.271 503.61 667.75 378.105 633.417C252.599 599.083 147.011 543.938 97.3363 468.908C47.662 393.878 53.6613 298.832 139.812 229.237C226.202 159.642 392.503 115.367 566.003 112.185C739.504 109.004 920.203 146.916 991.235 214.655Z" fill="#CFF4FE"/>
<path d="M1217.24 323.655C1288.27 391.394 1249.39 488.827 1198.52 573.931C1147.4 658.903 1084.29 731.281 979.902 760.843C875.274 790.271 729.61 776.75 604.105 742.417C478.599 708.083 373.011 652.938 323.336 577.908C273.662 502.878 279.661 407.832 365.812 338.237C452.202 268.642 618.503 224.367 792.003 221.185C965.504 218.004 1146.2 255.916 1217.24 323.655Z" fill="#CFF4FE" fill-opacity="0.47"/>
<path d="M1391.77 419.171C1380.19 398.269 1380.4 365.124 1364.54 341.634C1348.68 318.145 1316.75 304.311 1303.42 281.451C1290.11 258.522 1295.4 226.566 1310.86 209.176C1326.28 191.798 1351.87 188.984 1373.26 195.132C1394.66 201.338 1411.9 216.434 1431.27 225.923C1450.63 235.412 1472.06 239.248 1489.49 255.041C1506.91 270.834 1520.31 298.654 1521.75 325.508C1523.16 352.373 1512.63 378.33 1498.67 400.106C1484.72 421.882 1467.35 439.535 1447.02 444.048C1426.67 448.631 1403.34 440.016 1391.77 419.171Z" fill="#58C0F9"/>
<path d="M131.729 439.248C130.742 423.939 142.21 405.939 139.108 387.777C136.006 369.614 118.335 351.29 116.789 334.324C115.287 317.329 129.91 301.692 146.692 297.429C163.439 293.159 182.345 300.263 195.249 310.837C208.143 321.448 215.078 335.5 225.419 347.212C235.76 358.924 249.481 368.251 256.31 382.745C263.138 397.239 263.03 416.93 254.874 432.06C246.684 447.182 230.437 457.782 213.213 464.943C195.988 472.105 177.778 475.866 161.982 471.465C146.142 467.092 132.725 454.52 131.729 439.248Z" fill="#58C0F9"/>
<path d="M479.551 224.178C568.203 224.61 681.344 271.929 785.16 265.286C888.975 258.643 983.465 198.037 1081.4 196.841C1179.53 195.815 1281.1 254.197 1317.81 317.542C1354.54 380.76 1326.4 448.939 1273.78 493.941C1220.94 538.9 1143.82 560.851 1082.75 596.052C1021.68 631.252 976.92 679.619 897.138 701.055C817.356 722.492 702.36 716.829 608.303 682.556C514.271 648.155 440.957 585.1 387.018 519.342C333.078 453.584 298.291 385.079 312.845 327.704C327.201 270.16 391.119 223.789 479.551 224.178Z" fill="#58C0F9" fill-opacity="0.26"/>
<path d="M688.918 194.845C744.874 204.712 799.596 261.761 867.673 266.521C935.75 271.281 1017.18 223.752 1079.59 233.062C1142.07 242.554 1185.52 308.886 1186.15 373.014C1186.83 437.024 1144.69 498.83 1095.33 535.994C1045.84 573.093 989.197 585.732 937.985 612.678C886.773 639.624 841.182 680.824 783.036 692.69C724.891 704.555 654.129 686.905 606.83 644.293C559.592 601.562 535.692 533.805 525.02 465.544C514.348 397.283 516.777 328.454 546.463 275.469C576.085 222.301 633.088 185.041 688.918 194.845Z" fill="#58C0F9" fill-opacity="0.53"/>
<ellipse cx="1566.45" cy="150.755" rx="14.8376" ry="14.9039" transform="rotate(165 1566.45 150.755)" fill="#2B76FD"/>
<rect x="1484.61" y="177.827" width="21.1024" height="19.8718" transform="rotate(165 1484.61 177.827)" fill="#5AC5FF"/>
<ellipse cx="1534.17" cy="255.755" rx="6.5945" ry="6.62394" transform="rotate(165 1534.17 255.755)" fill="#5AC5FF"/>
<rect x="1533.63" y="172.235" width="12.5296" height="12.5855" transform="rotate(165 1533.63 172.235)" fill="#0B1016"/>
<path d="M1497.95 126.935C1496.77 122.517 1499.38 117.988 1503.77 116.813C1508.15 115.637 1512.67 118.256 1513.86 122.674C1515.04 127.091 1512.44 131.62 1508.05 132.796C1503.66 133.972 1499.14 131.353 1497.95 126.935Z" stroke="#0A1017" stroke-width="2"/>
<path d="M1583.48 220.834L1587.63 235.921L1572.55 231.951L1583.48 220.834Z" stroke="#0A1017" stroke-width="2"/>
<rect x="1616.76" y="212.367" width="12.5296" height="13.2479" transform="rotate(165 1616.76 212.367)" fill="#5AC5FF"/>
<path d="M1553.21 184.135L1566.96 197.937L1548.2 202.963L1553.21 184.135Z" fill="#55BDF6"/>
<ellipse cx="116.453" cy="472.755" rx="14.8376" ry="14.9039" transform="rotate(165 116.453 472.755)" fill="#2B76FD"/>
<rect x="34.6133" y="499.827" width="21.1024" height="19.8718" transform="rotate(165 34.6133 499.827)" fill="#5AC5FF"/>
<ellipse cx="84.1678" cy="577.755" rx="6.5945" ry="6.62394" transform="rotate(165 84.1678 577.755)" fill="#5AC5FF"/>
<rect x="83.6348" y="494.235" width="12.5296" height="12.5855" transform="rotate(165 83.6348 494.235)" fill="#0B1016"/>
<path d="M47.9549 448.935C46.7712 444.517 49.3778 439.988 53.7654 438.813C58.153 437.637 62.6748 440.256 63.8585 444.674C65.0422 449.091 62.4357 453.62 58.0481 454.796C53.6605 455.972 49.1387 453.353 47.9549 448.935Z" stroke="#0A1017" stroke-width="2"/>
<path d="M133.484 542.834L137.629 557.921L122.55 553.951L133.484 542.834Z" stroke="#0A1017" stroke-width="2"/>
<rect x="166.756" y="534.367" width="12.5296" height="13.2479" transform="rotate(165 166.756 534.367)" fill="#5AC5FF"/>
<path d="M103.209 506.135L116.958 519.937L98.2024 524.963L103.209 506.135Z" fill="#55BDF6"/>
</svg>
