<svg width="9" height="18" viewBox="0 0 9 18" fill="none" xmlns="http://www.w3.org/2000/svg">
<path d="M5.33105 7.90805H3.63648C2.67107 7.90805 1.88569 7.12268 1.88569 6.15732C1.88569 5.19192 2.67112 4.40654 3.63648 4.40654H7.02557C7.46242 4.40654 7.81658 4.05238 7.81658 3.61553C7.81658 3.17868 7.46242 2.82451 7.02557 2.82451H5.27478V1.07373C5.27478 0.636879 4.92062 0.282715 4.48376 0.282715C4.04691 0.282715 3.69275 0.636879 3.69275 1.07373V2.82451H3.63653C1.79879 2.82451 0.303711 4.31964 0.303711 6.15732C0.303711 7.99501 1.79884 9.49008 3.63653 9.49008H5.3311C6.29646 9.49008 7.08183 10.2755 7.08183 11.2409C7.08183 12.2062 6.29646 12.9916 5.3311 12.9916H1.94201C1.50516 12.9916 1.151 13.3458 1.151 13.7827C1.151 14.2195 1.50516 14.5737 1.94201 14.5737H3.69275V16.3245C3.69275 16.7614 4.04691 17.1155 4.48376 17.1155C4.92062 17.1155 5.27478 16.7614 5.27478 16.3245V14.5737H5.33105C7.16874 14.5737 8.66382 13.0786 8.66382 11.2409C8.66382 9.40318 7.16874 7.90805 5.33105 7.90805Z" fill="white"/>
</svg>
